<svg width="32" height="29" viewBox="0 0 32 29" fill="none" xmlns="http://www.w3.org/2000/svg">
<path d="M31.1718 2.70422C21.8451 -0.61135 11.7076 -0.8852 2.21558 1.92202C1.83828 2.0123 1.48304 2.17769 1.17108 2.40831C0.859111 2.63893 0.596816 2.93004 0.39985 3.26427C0.202884 3.59851 0.0752869 3.969 0.0246769 4.35363C-0.0259332 4.73827 0.00148172 5.12916 0.105285 5.50297C0.624801 7.58787 1.38259 9.9833 2.29272 12.1551C2.30835 12.2059 2.33276 12.1815 2.33276 12.1307C2.20093 11.1122 2.98411 9.82608 4.5202 9.35832C11.9023 7.00895 19.8468 7.11413 27.1641 9.65812C27.434 9.75043 27.7196 9.78777 28.0042 9.76793C28.2887 9.74809 28.5664 9.67148 28.8209 9.5426C29.0754 9.41372 29.3015 9.2352 29.4859 9.01755C29.6702 8.79991 29.8092 8.54754 29.8945 8.27535C30.8046 5.34575 31.1718 3.35654 31.2626 2.85851C31.2782 2.76574 31.1962 2.73059 31.1718 2.7052V2.70422ZM8.66949 9.14935C7.55136 9.38274 6.0055 9.74991 4.84538 10.1347C2.52611 10.9344 2.63353 13.7566 3.86885 14.657C3.95967 14.1336 4.5202 13.4217 5.14518 13.1815C7.46054 12.2713 9.9468 11.7274 12.4604 11.5028C11.1831 10.9843 9.93703 10.2411 8.68609 9.14837L8.66949 9.14935ZM27.1328 14.7996C23.8008 13.234 20.1887 12.3523 16.5101 12.2065C12.8315 12.0608 9.16094 12.6539 5.71547 13.951C4.61101 14.3679 3.91963 15.7117 4.61101 16.987C5.81883 19.1707 7.18954 21.2602 8.71148 23.2378C8.49274 22.48 8.87945 21.0767 10.3638 20.6178C14.4691 19.3561 18.7766 19.8912 21.6398 21.0504C22.4484 21.3756 23.5929 21.1783 24.2345 20.2174C25.3286 18.5319 26.3237 16.7842 27.2148 14.9832C27.2549 14.9021 27.2149 14.8416 27.1328 14.7996ZM20.4807 24.9165C19.2797 24.31 18.1814 23.5189 17.2259 22.5718C16.7835 22.1294 16.1322 21.4937 15.4457 20.7359C13.8783 20.7359 12.3569 20.8931 10.73 21.4127C9.21928 21.8853 9.07768 23.6304 9.73879 24.5405C10.8569 25.934 11.6411 26.6859 12.892 27.9789C13.555 28.6291 14.4452 28.9954 15.3738 29C16.3024 29.0045 17.1962 28.647 17.8655 28.0033C18.842 27.0268 19.4426 26.3754 20.5461 25.1245C20.6115 25.0581 20.5861 24.9419 20.4797 24.9165H20.4807Z" fill="black"/>
</svg>
